<svg version="1.1" id="Layer_1" xmlns="http://www.w3.org/2000/svg" x="0" y="0" viewBox="0 0 100 100" style="enable-background:new 0 0 100 100" xml:space="preserve" width="32" height="32"><style>.st0{fill-rule:evenodd;clip-rule:evenodd}.st0,.st1{fill:#05ac5b}</style><path class="st0" d="M28.3 2c.4 2.3.6 3 .5 5.6-.3 8.8 3.2 16.3 11.5 18.2 2.3.6 4.4.8 6.4 1.9.2-3.7 1.1-9.6-.5-13-2.4-4.9-5.3-8-10.5-9.9L28.3 2z"/><path class="st1" d="M28.3 2c.4 2.3.6 3 .5 5.6-.3 8.8 3.2 16.3 11.5 18.2 2.3.6 4.4.8 6.4 1.9.2-3.7 1.1-9.6-.5-13-2.4-4.9-5.3-8-10.5-9.9L28.3 2z"/><path class="st0" d="M56 7c1.2 1.4 1.9 2.5 3.1 3.9-2.2.9-3.8 2.7-4.9 4.8-1.8 3.4-1.7 6.9-2.5 10.6-.7-.3-1.3-.2-2-.5 1.1-4.7 1.1-10.1 3.6-14.3L56 7z"/><path class="st1" d="M56 7c1.2 1.4 1.9 2.5 3.1 3.9-2.2.9-3.8 2.7-4.9 4.8-1.8 3.4-1.7 6.9-2.5 10.6-.7-.3-1.3-.2-2-.5 1.1-4.7 1.1-10.1 3.6-14.3L56 7z"/><path d="M83 49c-2.8-4.8-6.8-8.8-12-12-3.1-1.9-6.3-3.4-9.9-4.3-3.5-1-7.3-1.4-11.2-1.4-3.8 0-7.4.5-11 1.5-3.6 1-6.9 2.4-10 4.3-5.2 3.2-9.1 7.2-12 12-2.8 4.8-4.2 10-4.2 15.6s1.4 10.8 4.2 15.6c2.8 4.8 6.8 8.9 12 12.1 3.1 1.9 6.4 3.3 10 4.3 3.6 1 7.2 1.5 11 1.5 3.9 0 7.5-.5 11.1-1.5 3.5-1 6.9-2.5 10-4.4 5.2-3.2 9.2-7.2 12-12 2.8-4.8 4.2-10 4.2-15.6 0-5.8-1.4-11-4.2-15.7zM69.2 87c-4.8 5.6-11.2 8.4-19.3 8.4-8.1 0-14.5-2.8-19.3-8.4-4.8-5.6-7.3-13.1-7.3-22.5s2.4-16.9 7.2-22.5c4.8-5.5 11.2-8.3 19.3-8.3 8.1 0 14.5 2.8 19.3 8.3 4.8 5.5 7.2 13 7.2 22.5.1 9.4-2.3 17-7.1 22.5z"/></svg>